<?xml version="1.0" encoding="utf-8"?>
<!-- Generator: Adobe Illustrator 21.1.0, SVG Export Plug-In . SVG Version: 6.00 Build 0)  -->
<svg version="1.1" id="Ebene_1" xmlns="http://www.w3.org/2000/svg" xmlns:xlink="http://www.w3.org/1999/xlink" x="0px" y="0px"
	 viewBox="0 0 264.9 95.1" style="enable-background:new 0 0 264.9 95.1;" xml:space="preserve">
<style type="text/css">
	.st0{fill:#F7931E;}
	.st1{fill:#1B171B;}
	.st2{fill:#B8B8B9;}
	.st3{fill:none;}
	.st4{enable-background:new    ;}
	
		.st5{fill:none;stroke:#FFBB00;stroke-width:2;stroke-linecap:round;stroke-linejoin:round;stroke-miterlimit:10;stroke-dasharray:8,8;}
	.st6{fill:none;stroke:#1B171B;stroke-miterlimit:10;}
</style>
<g>
	<g>
		<g>
			<g>
				<path class="st0" d="M235.8,24.6c-2.6,0-4.8,1.7-5.7,4h-23.4v4h23.4c0.8,2.3,3,4,5.7,4c3.3,0,6-2.7,6-6S239.1,24.6,235.8,24.6z"
					/>
				<path class="st1" d="M191.9,17.6c-7.2,0-13.3,4.6-15.6,11h-21.9c-0.8-2.3-3-4-5.7-4c-3.3,0-6,2.7-6,6s2.7,6,6,6
					c2.6,0,4.8-1.7,5.7-4h21h31.8h1.2C207.7,24.1,200.6,17.6,191.9,17.6z"/>
			</g>
			<rect x="125.4" y="21.1" class="st2" width="46" height="2.9"/>
			<rect x="211.9" y="21.1" class="st2" width="46" height="2.9"/>
		</g>
		<rect x="199.4" y="51.3" class="st3" width="67.5" height="13.5"/>
		<g class="st4">
			<path d="M200.8,61.9v-10h1.2v8.9h4.4v1.1H200.8z"/>
			<path d="M212.5,61.9l-0.2-1.1h-0.1c-0.4,0.5-0.7,0.8-1.1,1c-0.4,0.2-0.8,0.2-1.4,0.2c-0.7,0-1.3-0.2-1.7-0.6s-0.6-0.9-0.6-1.6
				c0-1.5,1.2-2.3,3.6-2.4h1.3v-0.5c0-0.6-0.1-1-0.4-1.3s-0.7-0.4-1.2-0.4c-0.6,0-1.3,0.2-2.1,0.6l-0.3-0.9c0.4-0.2,0.8-0.4,1.2-0.5
				s0.9-0.2,1.3-0.2c0.9,0,1.6,0.2,2,0.6s0.6,1,0.6,1.9v5.1L212.5,61.9L212.5,61.9z M209.9,61.1c0.7,0,1.3-0.2,1.7-0.6
				s0.6-0.9,0.6-1.6v-0.7h-1.1c-0.9,0-1.6,0.2-2,0.4c-0.4,0.2-0.6,0.6-0.6,1.2c0,0.4,0.1,0.7,0.4,0.9
				C209.2,61,209.5,61.1,209.9,61.1z"/>
			<path d="M220.8,61.9v-4.8c0-0.6-0.1-1.1-0.4-1.4s-0.7-0.5-1.3-0.5c-0.8,0-1.4,0.2-1.7,0.6c-0.4,0.4-0.5,1.1-0.5,2.1v3.9h-1.2
				v-7.5h0.9l0.2,1h0.1c0.2-0.4,0.6-0.7,1-0.9c0.4-0.2,0.9-0.3,1.4-0.3c0.9,0,1.6,0.2,2,0.7c0.5,0.4,0.7,1.1,0.7,2.1v4.9L220.8,61.9
				L220.8,61.9z"/>
			<path d="M229.4,60.9L229.4,60.9c-0.6,0.8-1.4,1.1-2.4,1.1s-1.7-0.3-2.3-1c-0.5-0.7-0.8-1.6-0.8-2.9s0.3-2.2,0.8-2.9s1.3-1,2.3-1
				s1.8,0.4,2.3,1.1h0.1v-0.5v-0.5v-3h1.1v10.6h-0.9L229.4,60.9z M227.1,61.1c0.8,0,1.3-0.2,1.7-0.6c0.3-0.4,0.5-1.1,0.5-2v-0.2
				c0-1.1-0.2-1.8-0.5-2.3c-0.4-0.5-0.9-0.7-1.7-0.7c-0.7,0-1.2,0.3-1.5,0.8c-0.4,0.5-0.5,1.2-0.5,2.2s0.2,1.7,0.5,2.2
				C225.9,60.9,226.4,61.1,227.1,61.1z"/>
		</g>
		<g>
			<path class="st0" d="M195.8,82.4L195.8,82.4c0.2-0.2,0.3-0.4,0.3-0.7c0-0.6-0.5-1-1-1c-0.3,0-0.6,0.1-0.7,0.3l0,0l-3,3.3l-3-3.3
				l0,0c-0.2-0.2-0.5-0.3-0.7-0.3c-0.6,0-1,0.5-1,1c0,0.3,0.1,0.5,0.3,0.7l0,0l3.7,4.1c0.2,0.2,0.5,0.3,0.8,0.3s0.6-0.1,0.8-0.3
				L195.8,82.4z"/>
			<line class="st5" x1="191.3" y1="41.8" x2="191.3" y2="79.8"/>
		</g>
		<line class="st6" x1="4.9" y1="91.1" x2="259.9" y2="91.1"/>
	</g>
	<path class="st0" d="M15.5,69.9c-4.7,0-8.5,3.8-8.5,8.5S12.2,87,15.5,90c2.7-2.7,8.5-7,8.5-11.6C24,73.7,20.2,69.9,15.5,69.9z
		 M18.8,81.5h-1.9v-2.2H14v2.2h-1.9v-6.2H14v2.2h2.9v-2.2h1.9V81.5z"/>
</g>
</svg>
