<?xml version="1.0" encoding="utf-8"?>
<!-- Generator: Adobe Illustrator 21.1.0, SVG Export Plug-In . SVG Version: 6.00 Build 0)  -->
<svg version="1.1" id="Ebene_1" xmlns="http://www.w3.org/2000/svg" xmlns:xlink="http://www.w3.org/1999/xlink" x="0px" y="0px"
	 viewBox="0 0 264.9 95.1" style="enable-background:new 0 0 264.9 95.1;" xml:space="preserve">
<style type="text/css">
	.st0{fill:#F7931E;}
	.st1{fill:#1B171B;}
	.st2{fill:#B8B8B9;}
	.st3{fill:none;}
	.st4{enable-background:new    ;}
	.st5{fill:none;stroke:#FFBB00;stroke-width:2;stroke-linecap:round;stroke-miterlimit:10;}
	.st6{fill:none;stroke:#1B171B;stroke-miterlimit:10;}
</style>
<g>
	<g>
		<g>
			<g>
				<path class="st0" d="M235.8,23.7c-2.6,0-4.8,1.7-5.7,4h-23.4v4h23.4c0.8,2.3,3,4,5.7,4c3.3,0,6-2.7,6-6S239.1,23.7,235.8,23.7z"
					/>
				<path class="st1" d="M191.9,16.7c-7.2,0-13.3,4.6-15.6,11h-21.9c-0.8-2.3-3-4-5.7-4c-3.3,0-6,2.7-6,6s2.7,6,6,6
					c2.6,0,4.8-1.7,5.7-4h21h31.8h1.2C207.7,23.3,200.6,16.7,191.9,16.7z"/>
			</g>
			<rect x="125.4" y="20.2" class="st2" width="46" height="2.9"/>
			<rect x="211.9" y="20.2" class="st2" width="46" height="2.9"/>
		</g>
		<rect x="199.4" y="50.5" class="st3" width="67.5" height="13.5"/>
		<g class="st4">
			<path d="M208.4,61.1h-1.2v-4.7h-5.3v4.7h-1.2v-10h1.2v4.3h5.3v-4.3h1.2V61.1z"/>
			<path d="M217.4,57.3c0,1.2-0.3,2.2-0.9,2.9c-0.6,0.7-1.5,1-2.5,1c-0.7,0-1.3-0.2-1.8-0.5s-0.9-0.8-1.2-1.4s-0.4-1.3-0.4-2.1
				c0-1.2,0.3-2.2,0.9-2.9c0.6-0.7,1.5-1,2.5-1s1.9,0.3,2.5,1C217.1,55.2,217.4,56.2,217.4,57.3z M211.7,57.3c0,1,0.2,1.7,0.6,2.2
				c0.4,0.5,0.9,0.8,1.7,0.8c0.7,0,1.3-0.2,1.7-0.8c0.4-0.5,0.6-1.2,0.6-2.2s-0.2-1.7-0.6-2.2c-0.4-0.5-1-0.7-1.7-0.7
				s-1.3,0.2-1.7,0.7C211.9,55.7,211.7,56.4,211.7,57.3z"/>
			<path d="M221.1,61.1l-2.8-7.5h1.2l1.6,4.4c0.4,1,0.6,1.7,0.6,2l0,0c0.1-0.2,0.2-0.7,0.5-1.5s0.9-2.4,1.8-5h1.2l-2.8,7.5
				L221.1,61.1L221.1,61.1z"/>
			<path d="M229.6,61.2c-1.1,0-2-0.3-2.6-1s-1-1.6-1-2.8c0-1.2,0.3-2.2,0.9-2.9c0.6-0.7,1.4-1.1,2.4-1.1c0.9,0,1.7,0.3,2.2,0.9
				s0.8,1.4,0.8,2.4v0.7h-5.2c0,0.9,0.2,1.5,0.7,2c0.4,0.5,1,0.7,1.8,0.7s1.6-0.2,2.4-0.5v1c-0.4,0.2-0.8,0.3-1.1,0.4
				C230.5,61.2,230.1,61.2,229.6,61.2z M229.3,54.4c-0.6,0-1.1,0.2-1.4,0.6c-0.4,0.4-0.6,0.9-0.6,1.6h3.9c0-0.7-0.2-1.3-0.5-1.6
				C230.3,54.6,229.9,54.4,229.3,54.4z"/>
			<path d="M237.7,53.5c0.3,0,0.6,0,0.9,0.1l-0.2,1.1c-0.3-0.1-0.6-0.1-0.8-0.1c-0.6,0-1.1,0.2-1.6,0.7s-0.6,1.1-0.6,1.8v4h-1.1
				v-7.5h0.9l0.1,1.4h0.1c0.3-0.5,0.6-0.9,1-1.1C236.8,53.6,237.2,53.5,237.7,53.5z"/>
		</g>
		<g>
			<path class="st0" d="M195.8,81.5L195.8,81.5c0.2-0.2,0.3-0.4,0.3-0.7c0-0.6-0.5-1-1-1c-0.3,0-0.6,0.1-0.7,0.3l0,0l-3,3.3l-3-3.3
				l0,0c-0.2-0.2-0.5-0.3-0.7-0.3c-0.6,0-1,0.5-1,1c0,0.3,0.1,0.5,0.3,0.7l0,0l3.7,4.1c0.2,0.2,0.5,0.3,0.8,0.3s0.6-0.1,0.8-0.3
				L195.8,81.5z"/>
			<path class="st0" d="M186.9,38.2L186.9,38.2c-0.2,0.2-0.3,0.4-0.3,0.7c0,0.6,0.5,1,1,1c0.3,0,0.6-0.1,0.7-0.3l0,0l3-3.3l3,3.3
				l0,0c0.2,0.2,0.5,0.3,0.7,0.3c0.6,0,1-0.5,1-1c0-0.3-0.1-0.5-0.3-0.7l0,0l-3.7-4.1c-0.2-0.2-0.5-0.3-0.8-0.3s-0.6,0.1-0.8,0.3
				L186.9,38.2z"/>
			<line class="st5" x1="191.3" y1="41" x2="191.3" y2="79"/>
		</g>
		<line class="st6" x1="4.9" y1="90.2" x2="259.9" y2="90.2"/>
	</g>
	<path class="st0" d="M15.5,68.8c-4.7,0-8.5,3.8-8.5,8.5s5.2,8.6,8.5,11.6c2.7-2.7,8.5-7,8.5-11.6C24,72.6,20.2,68.8,15.5,68.8z
		 M18.8,80.5h-1.9v-2.2H14v2.2h-1.9v-6.2H14v2.2h2.9v-2.2h1.9V80.5z"/>
</g>
</svg>
