<?xml version="1.0" encoding="utf-8"?>
<!-- Generator: Adobe Illustrator 21.1.0, SVG Export Plug-In . SVG Version: 6.00 Build 0)  -->
<svg version="1.1" id="Ebene_1" xmlns="http://www.w3.org/2000/svg" xmlns:xlink="http://www.w3.org/1999/xlink" x="0px" y="0px"
	 viewBox="0 0 264.9 95.1" style="enable-background:new 0 0 264.9 95.1;" xml:space="preserve">
<style type="text/css">
	.st0{fill:#F7931E;}
	.st1{fill:none;}
	.st2{enable-background:new    ;}
	.st3{fill:none;stroke:#1B171B;stroke-miterlimit:10;}
	.st4{fill:#1B171B;}
	.st5{fill:#B8B8B9;}
</style>
<g>
	<path class="st0" d="M15.8,67.3c-4.7,0-8.5,3.8-8.5,8.5s5.2,8.6,8.5,11.6c2.7-2.7,8.5-7,8.5-11.6C24.3,71.1,20.5,67.3,15.8,67.3z
		 M19.1,78.9h-1.9v-2.2h-2.9v2.2h-1.9v-6.2h1.9v2.2h2.9v-2.2h1.9V78.9z"/>
	<g>
		<rect x="189.7" y="31" class="st1" width="67.5" height="13.5"/>
		<g class="st2">
			<path d="M199.1,36.5c0,1.6-0.4,2.9-1.3,3.8c-0.9,0.9-2.2,1.3-3.9,1.3h-2.8v-10h3.1c1.6,0,2.8,0.4,3.6,1.3S199.1,35,199.1,36.5z
				 M197.9,36.6c0-1.3-0.3-2.3-1-2.9c-0.7-0.7-1.6-1-2.9-1h-1.7v8h1.4c1.4,0,2.4-0.3,3.1-1C197.5,38.9,197.9,37.9,197.9,36.6z"/>
			<path d="M204.6,34c0.3,0,0.6,0,0.9,0.1l-0.2,1.1c-0.3-0.1-0.6-0.1-0.8-0.1c-0.6,0-1.1,0.2-1.6,0.7s-0.6,1.1-0.6,1.8v4h-1.1v-7.5
				h0.9l0.1,1.4h0.1c0.3-0.5,0.6-0.9,1-1.1C203.7,34.1,204.1,34,204.6,34z"/>
			<path d="M213.3,37.9c0,1.2-0.3,2.2-0.9,2.9c-0.6,0.7-1.5,1-2.5,1c-0.7,0-1.3-0.2-1.8-0.5s-0.9-0.8-1.2-1.4s-0.4-1.3-0.4-2.1
				c0-1.2,0.3-2.2,0.9-2.9c0.6-0.7,1.5-1,2.5-1s1.9,0.3,2.5,1C213,35.7,213.3,36.7,213.3,37.9z M207.6,37.9c0,1,0.2,1.7,0.6,2.2
				c0.4,0.5,0.9,0.8,1.7,0.8c0.7,0,1.3-0.2,1.7-0.7c0.4-0.5,0.6-1.2,0.6-2.2s-0.2-1.7-0.6-2.2c-0.4-0.5-1-0.7-1.7-0.7
				s-1.3,0.2-1.7,0.7C207.8,36.2,207.6,36.9,207.6,37.9z"/>
			<path d="M218.8,41.8c-0.5,0-0.9-0.1-1.3-0.3c-0.4-0.2-0.7-0.5-1-0.8h-0.1c0.1,0.4,0.1,0.9,0.1,1.2V45h-1.1V34.1h0.9l0.2,1h0.1
				c0.3-0.4,0.6-0.7,1-0.9s0.8-0.3,1.3-0.3c1,0,1.8,0.3,2.3,1s0.8,1.6,0.8,2.9c0,1.2-0.3,2.2-0.8,2.9
				C220.5,41.4,219.8,41.8,218.8,41.8z M218.6,35c-0.8,0-1.3,0.2-1.7,0.6c-0.4,0.4-0.5,1.1-0.5,2v0.3c0,1.1,0.2,1.8,0.5,2.3
				c0.4,0.5,0.9,0.7,1.7,0.7c0.6,0,1.2-0.3,1.5-0.8c0.4-0.5,0.5-1.2,0.5-2.2c0-0.9-0.2-1.7-0.5-2.1C219.8,35.2,219.3,35,218.6,35z"
				/>
		</g>
		<line class="st3" x1="5.2" y1="90.3" x2="260.2" y2="90.3"/>
		<polygon points="251.7,81.6 238.4,85.2 247.7,60.2 226.4,88.9 196.4,84.2 215.7,90.2 243.1,90.2 		"/>
		<g>
			<g>
				<path class="st0" d="M224.9,77.6c-2.5-0.9-5.1,0-6.7,1.9l-22.1-7.7l-1.3,3.8l22.1,7.7c0,2.5,1.5,4.8,4,5.6
					c3.1,1.1,6.6-0.6,7.6-3.7C229.5,82.1,228.1,78.7,224.9,77.6z"/>
				<path class="st4" d="M185.9,56.5c-6.8-2.4-14.1-0.1-18.4,5.2l-20.7-7.2c0-2.5-1.6-4.8-4-5.6c-3.1-1.1-6.6,0.6-7.6,3.7
					c-1.1,3.1,0.6,6.6,3.7,7.6c2.5,0.9,5.1,0,6.7-1.9l19.8,6.9l30.1,10.5l1.2,0.4C198.5,67.9,194,59.4,185.9,56.5z"/>
			</g>
			
				<rect x="141.7" y="23.8" transform="matrix(0.3299 -0.944 0.944 0.3299 51.7485 166.4531)" class="st5" width="2.9" height="46"/>
			
				<rect x="223.4" y="52.4" transform="matrix(0.3299 -0.944 0.944 0.3299 79.4935 262.7419)" class="st5" width="2.9" height="46"/>
		</g>
	</g>
</g>
</svg>
