<?xml version="1.0" encoding="utf-8"?>
<!-- Generator: Adobe Illustrator 21.1.0, SVG Export Plug-In . SVG Version: 6.00 Build 0)  -->
<svg version="1.1" id="Ebene_1" xmlns="http://www.w3.org/2000/svg" xmlns:xlink="http://www.w3.org/1999/xlink" x="0px" y="0px"
	 viewBox="0 0 264.9 95.1" style="enable-background:new 0 0 264.9 95.1;" xml:space="preserve">
<style type="text/css">
	.st0{fill:#F7931E;}
	.st1{fill:#1B171B;}
	.st2{fill:#B8B8B9;}
	.st3{fill:none;}
	.st4{enable-background:new    ;}
	.st5{fill:none;stroke:#FFBB00;stroke-width:2;stroke-linecap:round;stroke-linejoin:round;}
	.st6{fill:none;stroke:#FFBB00;stroke-width:2;stroke-linecap:round;stroke-linejoin:round;stroke-dasharray:7.4103,7.4103;}
	.st7{fill:none;stroke:#FFBB00;stroke-width:2;stroke-linecap:round;stroke-linejoin:round;stroke-dasharray:7.7778,7.7778;}
	.st8{fill:none;stroke:#1B171B;stroke-miterlimit:10;}
</style>
<g>
	<path class="st0" d="M20.2,61.3L20.2,61.3c0.2-0.2,0.3-0.4,0.3-0.7c0-0.6-0.5-1-1-1c-0.3,0-0.6,0.1-0.7,0.3l0,0l-3,3.3l-3-3.3l0,0
		c-0.2-0.2-0.5-0.3-0.7-0.3c-0.6,0-1,0.5-1,1c0,0.3,0.1,0.5,0.3,0.7l0,0l3.7,4.1c0.2,0.2,0.5,0.3,0.8,0.3c0.3,0,0.6-0.1,0.8-0.3
		L20.2,61.3z"/>
	<g>
		<g>
			<path class="st0" d="M147.9,22.5c2.6,0,4.8,1.7,5.7,4H177v4h-23.4c-0.8,2.3-3,4-5.7,4c-3.3,0-6-2.7-6-6S144.6,22.5,147.9,22.5z"
				/>
			<path class="st1" d="M191.7,15.5c7.2,0,13.3,4.6,15.6,11h21.9c0.8-2.3,3-4,5.7-4c3.3,0,6,2.7,6,6s-2.7,6-6,6
				c-2.6,0-4.8-1.7-5.7-4h-21h-31.8h-1.2C176,22.1,183.1,15.5,191.7,15.5z"/>
		</g>
		<rect x="212.2" y="19" class="st2" width="46" height="2.9"/>
		<rect x="125.7" y="19" class="st2" width="46" height="2.9"/>
	</g>
	<rect x="42" y="43.2" class="st3" width="86.5" height="32.1"/>
	<g class="st4">
		<path d="M44.5,49.7v4.2h-1.2v-10H46c1.2,0,2.1,0.2,2.7,0.7s0.9,1.2,0.9,2.1c0,1.3-0.7,2.2-2,2.7l2.7,4.5h-1.4l-2.4-4.2L44.5,49.7
			L44.5,49.7z M44.5,48.7h1.6c0.8,0,1.4-0.2,1.8-0.5s0.6-0.8,0.6-1.5s-0.2-1.1-0.6-1.4s-1-0.4-1.9-0.4h-1.5
			C44.5,44.9,44.5,48.7,44.5,48.7z"/>
		<path d="M55,54c-1.1,0-2-0.3-2.6-1s-1-1.6-1-2.8c0-1.2,0.3-2.2,0.9-2.9s1.4-1.1,2.4-1.1c0.9,0,1.7,0.3,2.2,0.9s0.8,1.4,0.8,2.4
			v0.7h-5.2c0,0.9,0.2,1.5,0.7,2s1,0.7,1.8,0.7s1.6-0.2,2.4-0.5v1c-0.4,0.2-0.8,0.3-1.1,0.4C55.9,54,55.5,54,55,54z M54.7,47.2
			c-0.6,0-1.1,0.2-1.4,0.6s-0.6,0.9-0.6,1.6h3.9c0-0.7-0.2-1.3-0.5-1.6C55.7,47.4,55.3,47.2,54.7,47.2z"/>
		<path d="M62.1,53.1c0.2,0,0.4,0,0.6,0S63,53,63.1,53v0.9C63,54,62.8,54,62.6,54s-0.5,0.1-0.6,0.1c-1.4,0-2.2-0.8-2.2-2.3v-4.5
			h-1.1v-0.5l1.1-0.5l0.5-1.6H61v1.7h2.2v0.9H61v4.4c0,0.5,0.1,0.8,0.3,1S61.7,53.1,62.1,53.1z"/>
		<path d="M65.7,46.4v4.9c0,0.6,0.1,1.1,0.4,1.4s0.7,0.5,1.3,0.5c0.8,0,1.4-0.2,1.7-0.6c0.3-0.4,0.5-1.1,0.5-2.1v-3.9h1.1v7.5h-0.9
			l-0.2-1h-0.1c-0.2,0.4-0.6,0.7-1,0.8s-0.9,0.3-1.4,0.3c-0.9,0-1.6-0.2-2-0.6s-0.7-1.1-0.7-2.1v-4.9h1.3
			C65.7,46.6,65.7,46.4,65.7,46.4z"/>
		<path d="M76.6,46.2c0.3,0,0.6,0,0.9,0.1l-0.2,1.1c-0.3-0.1-0.6-0.1-0.8-0.1c-0.6,0-1.1,0.2-1.6,0.7s-0.6,1.1-0.6,1.8v4h-1.1v-7.5
			h0.9l0.1,1.4h0.1c0.3-0.5,0.6-0.9,1-1.1S76.2,46.2,76.6,46.2z"/>
		<path d="M84.1,53.9v-4.8c0-0.6-0.1-1.1-0.4-1.4s-0.7-0.5-1.3-0.5c-0.8,0-1.4,0.2-1.7,0.6s-0.5,1.1-0.5,2.1v3.9h-1.1v-7.5H80l0.2,1
			h0.1c0.2-0.4,0.6-0.7,1-0.9c0.4-0.2,0.9-0.3,1.4-0.3c0.9,0,1.6,0.2,2,0.7c0.5,0.4,0.7,1.1,0.7,2.1v4.9L84.1,53.9L84.1,53.9z"/>
		<path d="M93.6,53.1c0.2,0,0.4,0,0.6,0s0.3-0.1,0.4-0.1v0.9C94.5,54,94.3,54,94.1,54s-0.5,0.1-0.6,0.1c-1.4,0-2.2-0.8-2.2-2.3v-4.5
			h-1.1v-0.5l1.1-0.5l0.5-1.6h0.7v1.7h2.2v0.9h-2.2v4.4c0,0.5,0.1,0.8,0.3,1S93.2,53.1,93.6,53.1z"/>
		<path d="M102.6,50.1c0,1.2-0.3,2.2-0.9,2.9c-0.6,0.7-1.5,1-2.5,1c-0.7,0-1.3-0.2-1.8-0.5s-0.9-0.8-1.2-1.4s-0.4-1.3-0.4-2.1
			c0-1.2,0.3-2.2,0.9-2.9c0.6-0.7,1.5-1,2.5-1s1.9,0.3,2.5,1S102.6,48.9,102.6,50.1z M96.9,50.1c0,1,0.2,1.7,0.6,2.2
			s0.9,0.8,1.7,0.8s1.3-0.2,1.7-0.7c0.4-0.5,0.6-1.2,0.6-2.2s-0.2-1.7-0.6-2.2s-1-0.7-1.7-0.7s-1.3,0.2-1.7,0.7S96.9,49.1,96.9,50.1
			z"/>
	</g>
	<g class="st4">
		<path d="M50.9,70.7h-1.2V66h-5.3v4.7h-1.2v-10h1.2V65h5.3v-4.3h1.2V70.7z"/>
		<path d="M60,66.9c0,1.2-0.3,2.2-0.9,2.9c-0.6,0.7-1.5,1-2.5,1c-0.7,0-1.3-0.2-1.8-0.5s-0.9-0.8-1.2-1.4c-0.3-0.6-0.4-1.3-0.4-2.1
			c0-1.2,0.3-2.2,0.9-2.9c0.6-0.7,1.5-1,2.5-1s1.9,0.3,2.5,1C59.7,64.6,60,65.7,60,66.9z M54.3,66.9c0,1,0.2,1.7,0.6,2.2
			s0.9,0.8,1.7,0.8s1.3-0.2,1.7-0.7s0.6-1.2,0.6-2.2s-0.2-1.7-0.6-2.2s-1-0.7-1.7-0.7s-1.3,0.2-1.7,0.7S54.3,65.9,54.3,66.9z"/>
		<path d="M71.5,70.7v-4.9c0-0.6-0.1-1-0.4-1.3s-0.7-0.4-1.2-0.4c-0.7,0-1.2,0.2-1.6,0.6c-0.4,0.4-0.5,1-0.5,1.9v4.2h-1.1v-4.9
			c0-0.6-0.1-1-0.4-1.3s-0.7-0.4-1.2-0.4c-0.7,0-1.2,0.2-1.6,0.6c-0.3,0.4-0.5,1.1-0.5,2.1v3.9h-1.1v-7.5h0.9l0.2,1h0.1
			c0.2-0.4,0.5-0.6,0.9-0.9c0.4-0.3,0.8-0.3,1.3-0.3c1.2,0,1.9,0.4,2.3,1.3h0.1c0.2-0.4,0.5-0.7,1-0.9s0.9-0.3,1.4-0.3
			c0.8,0,1.5,0.2,1.9,0.7c0.4,0.4,0.6,1.1,0.6,2.1v4.9h-1.1V70.7L71.5,70.7z"/>
		<path d="M78.2,70.8c-1.1,0-2-0.3-2.6-1s-1-1.6-1-2.8c0-1.2,0.3-2.2,0.9-2.9c0.6-0.7,1.4-1.1,2.4-1.1c0.9,0,1.7,0.3,2.2,0.9
			c0.5,0.6,0.8,1.4,0.8,2.4V67h-5.2c0,0.9,0.2,1.5,0.7,2s1,0.7,1.8,0.7s1.6-0.2,2.4-0.5v1c-0.4,0.2-0.8,0.3-1.1,0.4
			C79.1,70.8,78.7,70.8,78.2,70.8z M77.9,64c-0.6,0-1.1,0.2-1.4,0.6c-0.3,0.4-0.6,0.9-0.6,1.6h3.9c0-0.7-0.2-1.3-0.5-1.6
			C78.9,64.2,78.4,64,77.9,64z"/>
	</g>
	<g>
		<g>
			<line class="st5" x1="120.1" y1="26.2" x2="116.1" y2="26.2"/>
			<line class="st6" x1="108.7" y1="26.2" x2="23.4" y2="26.2"/>
			<polyline class="st5" points="19.7,26.2 15.7,26.2 15.7,30.2 			"/>
			<line class="st7" x1="15.7" y1="38" x2="15.7" y2="49.6"/>
			<line class="st5" x1="15.7" y1="53.5" x2="15.7" y2="57.5"/>
		</g>
	</g>
	<line class="st8" x1="5.2" y1="89" x2="260.2" y2="89"/>
	<path class="st0" d="M15.8,67.6c-4.7,0-8.5,3.8-8.5,8.5s5.2,8.6,8.5,11.6c2.7-2.7,8.5-7,8.5-11.6C24.3,71.4,20.5,67.6,15.8,67.6z
		 M19.1,79.2h-1.9V77h-2.9v2.2h-1.9V73h1.9v2.2h2.9V73h1.9V79.2z"/>
</g>
</svg>
