<?xml version="1.0" encoding="utf-8"?>
<!-- Generator: Adobe Illustrator 21.1.0, SVG Export Plug-In . SVG Version: 6.00 Build 0)  -->
<svg version="1.1" id="Capa_1" xmlns="http://www.w3.org/2000/svg" xmlns:xlink="http://www.w3.org/1999/xlink" x="0px" y="0px"
	 viewBox="0 0 141.7 141.7" style="enable-background:new 0 0 141.7 141.7;" xml:space="preserve">
<style type="text/css">
	.st0{fill-rule:evenodd;clip-rule:evenodd;fill:#FFFFFF;}
	.st1{fill-rule:evenodd;clip-rule:evenodd;fill:#333333;}
	.st2{fill:#FFFFFF;}
</style>
<g>
	<path class="st0" d="M71.4,136.6c37.9,0,68.7-29.4,68.7-65.5c0-36.1-30.9-65.5-68.7-65.5C33.5,5.5,2.7,35,2.7,71.1
		C2.7,107.2,33.5,136.6,71.4,136.6z"/>
</g>
<g>
	<path class="st1" d="M71.4,132.7c35.6,0,64.6-27.7,64.6-61.6c0-33.9-29-61.6-64.6-61.6C35.8,9.5,6.8,37.1,6.8,71.1
		C6.8,105,35.8,132.7,71.4,132.7z"/>
</g>
<g>
	<path class="st0" d="M71.4,119.6c28,0,50.9-21.8,50.9-48.6c0-26.7-22.9-48.5-50.9-48.5c-28,0-50.9,21.8-50.9,48.5
		C20.5,97.8,43.4,119.6,71.4,119.6z"/>
</g>
<g>
	<path class="st1" d="M71.4,114.9c25.3,0,46-19.7,46-43.9c0-24.2-20.7-43.9-46-43.9c-25.3,0-46,19.7-46,43.9
		C25.4,95.2,46.1,114.9,71.4,114.9z"/>
</g>
<g>
	<path class="st2" d="M96.2,73.7l-57.7-21c-0.6-0.2-0.4-0.9,0.1-1.2c0.3-0.1,9.2-4.3,9.2-4.3c0.8-0.4,1.9-0.6,3.1-0.6
		c0.9,0,1.7,0.1,2.3,0.3c0,0,58.7,21.4,59,21.5c1.1,0.4,1,1.6,0.1,2c-1,0.4-8.2,3.8-8.2,3.8C102.2,75,99.7,75,96.2,73.7z
		 M105.2,76.6c-2.4,1.2-2.9,1.6-4.2,5.2c0,0-4.5,12.3-5.7,15.5c-0.2,0.6,0.1,1.1,0.7,0.8l9.5-4.4c1.4-0.7,3.1-2.5,3.6-4l6-16.5
		c0.2-0.6-0.2-1.2-0.9-0.9L105.2,76.6z M92.5,100.1c0,0.4,0,1.2,0,2c0,4.8,3.6,10.3,3.6,12.8c0,2.9-2.3,5.3-5.2,5.3
		c-2.9,0-5.2-2.4-5.2-5.3c0-2.5,3.6-8,3.6-12.8c0-0.8,0-1,0-1.4c0-2-1.3-3.2-2.5-3.6l-57.6-21c-1.1-0.4-1.6-1.6-1.2-2.6l6.4-17.5
		c0.3-0.8,1.1-1.3,1.9-1.3c0.2,0,0.5,0,0.7,0.1L97.8,77c1.1,0.4,1.6,1.6,1.2,2.6l-5.7,15.6C92.6,97.1,92.5,99.4,92.5,100.1z
		 M47.9,75.4l-12.6-4.6c-0.7-0.2-1.4,0.1-1.6,0.8c-0.2,0.7,0.1,1.4,0.8,1.6L47,77.8c0.1,0.1,0.3,0.1,0.4,0.1c0.5,0,1-0.3,1.2-0.8
		C48.9,76.4,48.6,75.7,47.9,75.4z"/>
</g>
</svg>
