<?xml version="1.0" encoding="utf-8"?>
<!-- Generator: Adobe Illustrator 21.1.0, SVG Export Plug-In . SVG Version: 6.00 Build 0)  -->
<svg version="1.1" id="Layer_1" xmlns="http://www.w3.org/2000/svg" xmlns:xlink="http://www.w3.org/1999/xlink" x="0px" y="0px"
	 viewBox="0 0 1792 1792" style="enable-background:new 0 0 1792 1792;" xml:space="preserve">
<style type="text/css">
	.st0{fill:#FFFFFF;}
</style>
<path class="st0" d="M1363,877l-742,742c-12.7,12.7-27.7,19-45,19s-32.3-6.3-45-19l-166-166c-12.7-12.7-19-27.7-19-45
	s6.3-32.3,19-45l531-531L365,301c-12.7-12.7-19-27.7-19-45s6.3-32.3,19-45L531,45c12.7-12.7,27.7-19,45-19s32.3,6.3,45,19l742,742
	c12.7,12.7,19,27.7,19,45S1375.7,864.3,1363,877z"/>
</svg>
