<?xml version="1.0" encoding="utf-8"?>
<!-- Generator: Adobe Illustrator 21.1.0, SVG Export Plug-In . SVG Version: 6.00 Build 0)  -->
<svg version="1.1" id="Capa_1" xmlns="http://www.w3.org/2000/svg" xmlns:xlink="http://www.w3.org/1999/xlink" x="0px" y="0px"
	 viewBox="0 0 141.7 141.7" style="enable-background:new 0 0 141.7 141.7;" xml:space="preserve">
<style type="text/css">
	.st0{fill:#FFFFFF;}
</style>
<g>
	<path class="st0" d="M139.9,70.9c0-35.9-30.8-65.3-68.5-65.3S2.9,34.9,2.9,70.9c0,36.1,30.8,65.4,68.5,65.4c7,0,13.8-1,20.1-2.9
		c1.2,2.2,3.4,3.7,6.1,3.7c3.9,0,7-3.2,7-7.1c0-0.5-0.1-1.1-0.3-1.8C125.5,117,139.9,95.5,139.9,70.9z M102.1,122.1
		c-1.2-3-2.3-6.3-2.3-9.4c0-1.1,0-2.2,0-2.7c0-0.9,0.1-4,1.1-6.6l7.7-21c0.5-1.3-0.1-3-1.6-3.5L25.1,49.1c-0.3-0.1-0.7-0.1-0.9-0.1
		c-1.1,0-2.2,0.7-2.6,1.7L13,74.2c-0.5,1.3,0.1,3,1.6,3.5L92.1,106c1.6,0.5,3.4,2.2,3.4,4.8c0,0.5,0,0.8,0,1.9
		c0,4.8-2.7,10.2-4.1,14c-6.3,2.1-13,3.2-20,3.2c-34.1,0-61.9-26.5-61.9-59.1s27.9-59.1,61.9-59.1c34.1,0,61.9,26.5,61.9,59.1
		C133.3,92.8,120.7,111.9,102.1,122.1z M40.7,79.1c-0.3,0.7-0.9,1.1-1.6,1.1c-0.1,0-0.4,0-0.5-0.1l-16.8-6.2
		c-0.9-0.3-1.3-1.2-1.1-2.2c0.3-0.9,1.2-1.3,2.2-1.1l17,6.2C40.7,77.2,41.1,78.1,40.7,79.1z"/>
	<path class="st0" d="M115.4,75.2c0,0,9.7-4.6,11-5.1c1.2-0.5,1.3-2.2-0.1-2.7c-0.4-0.1-79.4-28.9-79.4-28.9
		C46.1,38.2,45,38,43.8,38c-1.6,0-3.1,0.3-4.2,0.8c0,0-12,5.7-12.4,5.8c-0.7,0.4-0.9,1.3-0.1,1.6l77.7,28.3
		C109.5,76.3,112.9,76.3,115.4,75.2z"/>
	<path class="st0" d="M129,72.6l-12.1,5.8c-3.2,1.6-3.9,2.2-5.7,7c0,0-6.1,16.6-7.7,20.9c-0.3,0.8,0.1,1.5,0.9,1.1l12.8-5.9
		c1.9-0.9,4.2-3.4,4.8-5.4l8.1-22.2C130.5,73,129.9,72.2,129,72.6z"/>
</g>
</svg>
