<?xml version="1.0" encoding="utf-8"?>
<!-- Generator: Adobe Illustrator 21.1.0, SVG Export Plug-In . SVG Version: 6.00 Build 0)  -->
<svg version="1.1" id="Capa_1" xmlns="http://www.w3.org/2000/svg" xmlns:xlink="http://www.w3.org/1999/xlink" x="0px" y="0px"
	 viewBox="0 0 141.7 141.7" style="enable-background:new 0 0 141.7 141.7;" xml:space="preserve">
<style type="text/css">
	.st0{fill:#F7931E;}
</style>
<g>
	<g>
		<path class="st0" d="M129.1,114.9l-52-97.5c-1.3-2.4-3.8-4-6.6-4c-2.8,0-5.3,1.5-6.6,4l-52.3,97.5c-1.2,2.3-1.2,5.1,0.2,7.4
			s3.8,3.7,6.5,3.7h104.3c2.6,0,5.1-1.4,6.4-3.7C130.3,120,130.4,117.2,129.1,114.9L129.1,114.9z M70.5,110.9
			c-4.1,0-7.5-3.3-7.5-7.5c0-4.1,3.4-7.5,7.5-7.5s7.5,3.4,7.5,7.5C78,107.6,74.6,110.9,70.5,110.9L70.5,110.9z M78,81
			c0,4.2-3.4,7.5-7.5,7.5S63,85.2,63,81V51c0-4.1,3.4-7.5,7.5-7.5S78,46.9,78,51V81z"/>
	</g>
</g>
</svg>
